<svg width="80" height="80" viewBox="0 0 80 80" fill="none" xmlns="http://www.w3.org/2000/svg">
<path d="M51.9667 5.83333C42.0667 5.83333 34.0333 13.8667 34.0333 23.7667C34.0333 33.6667 42.0667 41.7 51.9667 41.7C61.8667 41.7 69.9 33.6667 69.9 23.7667C69.9 13.8667 61.8667 5.83333 51.9667 5.83333Z" fill="white"/>
<path d="M21.2 43.4333C15.1 43.4333 10.1 48.4 10.1 54.5333C10.1 60.6667 15.0667 65.6333 21.2 65.6333C27.3 65.6333 32.3 60.6667 32.3 54.5333C32.3 48.4 27.3 43.4333 21.2 43.4333Z" fill="white"/>
<path d="M55.4 55.4C50.2333 55.4 46.0333 59.6 46.0333 64.7667C46.0333 69.9333 50.2333 74.1333 55.4 74.1333C60.5667 74.1333 64.7667 69.9333 64.7667 64.7667C64.7667 59.6 60.5667 55.4 55.4 55.4Z" fill="white"/>
</svg>
