<svg width="18" height="18" viewBox="0 0 18 18" fill="none" xmlns="http://www.w3.org/2000/svg">
<path d="M11.7075 4.13246L11.7075 11.7525C11.7075 12.0525 11.6175 12.345 11.4525 12.5925L9.40502 15.6375C9.08252 16.125 8.28002 16.47 7.59752 16.215C6.86252 15.9675 6.37502 15.1425 6.53252 14.4075L6.92252 11.955C6.95252 11.73 6.89252 11.5275 6.76502 11.37C6.63752 11.2275 6.45002 11.1375 6.24752 11.1375H3.16502C2.57252 11.1375 2.06252 10.8975 1.76252 10.4775C1.47752 10.0725 1.42502 9.54746 1.61252 9.01496L3.45752 3.39746C3.69002 2.46746 4.70252 1.70996 5.70752 1.70996H8.63252C9.13502 1.70996 9.84002 1.88246 10.1625 2.20496L11.1225 2.94746C11.49 3.22496 11.7075 3.66746 11.7075 4.13246Z" fill="#1F1F1F"/>
<path d="M14.0925 13.2148H14.865C16.0275 13.2148 16.5 12.7648 16.5 11.6548V4.10984C16.5 2.99984 16.0275 2.54984 14.865 2.54984H14.0925C12.93 2.54984 12.4575 2.99984 12.4575 4.10984V11.6548C12.4575 12.7648 12.93 13.2148 14.0925 13.2148Z" fill="#1F1F1F"/>
</svg>
