<svg
        width="28"
        height="28"
        viewBox="0 0 28 28"
        fill="none"
        xmlns="http://www.w3.org/2000/svg"
      >
        <path
          d="M7.887 25.667h12.226c3.22 0 4.504-1.972 4.655-4.375l.607-9.637A4.38 4.38 0 0 0 21 7a1.92 1.92 0 0 1-1.692-1.038l-.84-1.692c-.536-1.061-1.936-1.936-3.126-1.936H12.67c-1.202 0-2.602.874-3.138 1.936l-.84 1.692A1.92 1.92 0 0 1 7 7a4.38 4.38 0 0 0-4.375 4.655l.607 9.637c.14 2.403 1.435 4.375 4.655 4.375M12.25 9.334h3.5"
          stroke-width="1.5"
          stroke-linecap="round"
          stroke-linejoin="round"
        />
        <path
          d="M14 21a3.8 3.8 0 0 0 3.792-3.792A3.8 3.8 0 0 0 14 13.417a3.8 3.8 0 0 0-3.792 3.791A3.8 3.8 0 0 0 14 21"
          stroke-width="1.5"
          stroke-linecap="round"
          stroke-linejoin="round"
        />
      </svg>